<svg width="314" height="50" viewBox="0 0 314 50" version="1.1" xmlns="http://www.w3.org/2000/svg" xmlns:xlink="http://www.w3.org/1999/xlink">
<title>logo.svg</title>
<desc>Created using Figma</desc>
<g id="Canvas" transform="translate(-1642 -314)">
<g id="logo">
<g id="befocused">
<use xlink:href="#path0_fill" transform="translate(1769.5 325.111)" fill="#333333"/>
<use xlink:href="#path1_fill" transform="translate(1769.5 325.111)" fill="#333333"/>
<use xlink:href="#path2_fill" transform="translate(1769.5 325.111)" fill="#333333"/>
<use xlink:href="#path3_fill" transform="translate(1769.5 325.111)" fill="#333333"/>
<use xlink:href="#path4_fill" transform="translate(1769.5 325.111)" fill="#333333"/>
<use xlink:href="#path5_fill" transform="translate(1769.5 325.111)" fill="#333333"/>
<use xlink:href="#path6_fill" transform="translate(1769.5 325.111)" fill="#333333"/>
<use xlink:href="#path7_fill" transform="translate(1769.5 325.111)" fill="#333333"/>
<use xlink:href="#path8_fill" transform="translate(1769.5 325.111)" fill="#333333"/>
</g>
<g id="Ellipse">
<use xlink:href="#path9_fill" transform="translate(1642 314)" fill="#ABCFFF"/>
</g>
<g id="Ellipse">
<use xlink:href="#path9_fill" transform="translate(1667 314)" fill="#579FFF"/>
</g>
<g id="Ellipse">
<use xlink:href="#path9_fill" transform="translate(1692 314)" fill="#006DFF"/>
</g>
</g>
</g>
<defs>
<path id="path0_fill" d="M 13.7468 21.9037C 14.7834 20.8658 15.3017 19.4503 15.3017 17.6575C 15.3017 15.8646 14.7834 14.461 13.7468 13.4466C 12.7337 12.4322 11.5322 11.925 10.1422 11.925C 8.75222 11.925 7.53893 12.444 6.50233 13.482C 5.48928 14.4963 4.98276 15.9 4.98276 17.6928C 4.98276 19.4857 5.48928 20.9012 6.50233 21.9391C 7.53893 22.9535 8.75222 23.4607 10.1422 23.4607C 11.5322 23.4607 12.7337 22.9417 13.7468 21.9037ZM 4.98276 10.9342C 6.37275 8.71668 8.41062 7.60793 11.0964 7.60793C 13.7821 7.60793 15.9967 8.55154 17.74 10.4388C 19.4834 12.3024 20.3551 14.7205 20.3551 17.6928C 20.3551 20.6417 19.4834 23.0597 17.74 24.9469C 15.9967 26.8342 13.7939 27.7778 11.1317 27.7778C 8.49307 27.7778 6.44343 26.5865 4.98276 24.2038L 4.98276 27.4947L 0 27.4947L 0 1.30927L 4.98276 1.30927L 4.98276 10.9342Z"/>
<path id="path1_fill" d="M 32.5301 27.7778C 29.6795 27.7778 27.3589 26.8577 25.5684 25.0177C 23.7779 23.154 22.8827 20.7006 22.8827 17.6575C 22.8827 14.6143 23.7779 12.1845 25.5684 10.368C 27.3825 8.52795 29.7148 7.60793 32.5655 7.60793C 35.4397 7.60793 37.7956 8.50436 39.6332 10.2972C 41.4708 12.0665 42.3896 14.4374 42.3896 17.4098C 42.3896 18.0939 42.3425 18.7308 42.2483 19.3206L 27.9714 19.3206C 28.0892 20.5945 28.5604 21.6207 29.385 22.3992C 30.2095 23.1776 31.2579 23.5669 32.5301 23.5669C 34.2499 23.5669 35.5221 22.8592 36.3467 21.4437L 41.7182 21.4437C 41.1528 23.3074 40.0573 24.829 38.4317 26.0085C 36.8061 27.188 34.8389 27.7778 32.5301 27.7778ZM 37.2302 16.1005C 37.1595 14.803 36.6765 13.765 35.7813 12.9866C 34.9096 12.2081 33.8494 11.8188 32.6008 11.8188C 31.3522 11.8188 30.3038 12.2081 29.4557 12.9866C 28.6311 13.765 28.1363 14.803 27.9714 16.1005L 37.2302 16.1005Z"/>
<path id="path2_fill" d="M 54.6883 7.89101L 54.6883 11.9604L 51.5785 11.9604L 51.5785 27.4947L 46.6311 27.4947L 46.6311 11.9604L 44.5108 11.9604L 44.5108 7.89101L 46.6311 7.89101L 46.6311 6.79405C 46.6311 4.43501 47.2554 2.7129 48.5041 1.62774C 49.7527 0.542581 51.7199 0 54.4056 0L 54.4056 4.17551C 53.369 4.17551 52.6387 4.37603 52.2146 4.77707C 51.7906 5.17811 51.5785 5.85044 51.5785 6.79405L 51.5785 7.89101L 54.6883 7.89101Z"/>
<path id="path3_fill" d="M 66.809 23.5669C 68.199 23.5669 69.3887 23.0597 70.3782 22.0453C 71.3912 21.0073 71.8977 19.5565 71.8977 17.6928C 71.8977 15.8056 71.403 14.3548 70.4135 13.3404C 69.424 12.326 68.2225 11.8188 66.809 11.8188C 65.419 11.8188 64.241 12.326 63.2751 13.3404C 62.3092 14.3548 61.8262 15.8056 61.8262 17.6928C 61.8262 19.5801 62.3092 21.0309 63.2751 22.0453C 64.241 23.0597 65.419 23.5669 66.809 23.5669ZM 59.6352 24.9823C 57.7269 23.1187 56.7728 20.677 56.7728 17.6575C 56.7728 14.6379 57.7387 12.2081 59.6705 10.368C 61.6024 8.52795 63.9936 7.60793 66.8443 7.60793C 69.7185 7.60793 72.1216 8.52795 74.0534 10.368C 75.9853 12.2081 76.9512 14.6379 76.9512 17.6575C 76.9512 20.677 75.9735 23.1187 74.0181 24.9823C 72.0862 26.846 69.6832 27.7778 66.809 27.7778C 63.9347 27.7778 61.5435 26.846 59.6352 24.9823Z"/>
<path id="path4_fill" d="M 82.2001 25.0177C 80.4096 23.1776 79.5143 20.736 79.5143 17.6928C 79.5143 14.6497 80.4096 12.2081 82.2001 10.368C 83.9906 8.52795 86.3112 7.60793 89.1618 7.60793C 91.5413 7.60793 93.532 8.18589 95.134 9.34182C 96.7361 10.4978 97.808 12.1373 98.3499 14.2604L 92.9784 14.2604C 92.3423 12.6327 91.0701 11.8188 89.1618 11.8188C 87.7247 11.8188 86.5939 12.3496 85.7693 13.4112C 84.9683 14.4492 84.5678 15.8764 84.5678 17.6928C 84.5678 19.5093 84.9683 20.9483 85.7693 22.0099C 86.5939 23.0479 87.7247 23.5669 89.1618 23.5669C 91.0465 23.5669 92.3187 22.7412 92.9784 21.0899L 98.3499 21.0899C 97.7845 23.1422 96.689 24.77 95.0634 25.9731C 93.4614 27.1762 91.4942 27.7778 89.1618 27.7778C 86.3112 27.7778 83.9906 26.8577 82.2001 25.0177Z"/>
<path id="path5_fill" d="M 115.581 7.89101L 120.564 7.89101L 120.564 27.4947L 115.581 27.4947L 115.581 24.5223C 114.333 26.669 112.295 27.7424 109.468 27.7424C 107.253 27.7424 105.439 27.0111 104.026 25.5485C 102.612 24.0623 101.905 22.0099 101.905 19.3914L 101.905 7.89101L 106.853 7.89101L 106.853 18.6837C 106.853 20.217 107.241 21.3966 108.019 22.2222C 108.796 23.0479 109.856 23.4607 111.199 23.4607C 112.542 23.4607 113.602 23.0479 114.38 22.2222C 115.181 21.3966 115.581 20.217 115.581 18.6837L 115.581 7.89101Z"/>
<path id="path6_fill" d="M 124.764 13.6235C 124.764 11.925 125.483 10.4978 126.92 9.34182C 128.357 8.18589 130.265 7.60793 132.645 7.60793C 135.024 7.60793 136.932 8.18589 138.37 9.34182C 139.807 10.4742 140.572 12.0193 140.667 13.9774L 135.578 13.9774C 135.436 12.326 134.423 11.5004 132.539 11.5004C 131.596 11.5004 130.866 11.6891 130.348 12.0665C 129.829 12.444 129.57 12.963 129.57 13.6235C 129.57 14.284 129.959 14.803 130.736 15.1805C 131.514 15.5579 132.456 15.8528 133.564 16.0651C 134.671 16.2774 135.766 16.5487 136.85 16.879C 137.957 17.1857 138.9 17.7518 139.677 18.5775C 140.455 19.3796 140.843 20.4529 140.843 21.7976C 140.843 23.5669 140.089 25.0059 138.582 26.1146C 137.097 27.2234 135.189 27.7778 132.857 27.7778C 130.548 27.7778 128.651 27.2352 127.167 26.15C 125.683 25.0413 124.87 23.4607 124.729 21.4083L 129.818 21.4083C 130.006 23.0597 131.054 23.8854 132.963 23.8854C 133.882 23.8854 134.624 23.6848 135.189 23.2838C 135.755 22.8592 136.037 22.3166 136.037 21.6561C 136.037 20.9719 135.649 20.4411 134.871 20.0637C 134.094 19.6627 133.151 19.356 132.044 19.1437C 130.937 18.9314 129.829 18.6719 128.722 18.3652C 127.638 18.0585 126.708 17.5159 125.93 16.7374C 125.153 15.9354 124.764 14.8974 124.764 13.6235Z"/>
<path id="path7_fill" d="M 153.351 27.7778C 150.501 27.7778 148.18 26.8577 146.39 25.0177C 144.599 23.154 143.704 20.7006 143.704 17.6575C 143.704 14.6143 144.599 12.1845 146.39 10.368C 148.204 8.52795 150.536 7.60793 153.387 7.60793C 156.261 7.60793 158.617 8.50436 160.454 10.2972C 162.292 12.0665 163.211 14.4374 163.211 17.4098C 163.211 18.0939 163.164 18.7308 163.069 19.3206L 148.793 19.3206C 148.91 20.5945 149.382 21.6207 150.206 22.3992C 151.031 23.1776 152.079 23.5669 153.351 23.5669C 155.071 23.5669 156.343 22.8592 157.168 21.4437L 162.539 21.4437C 161.974 23.3074 160.878 24.829 159.253 26.0085C 157.627 27.188 155.66 27.7778 153.351 27.7778ZM 158.051 16.1005C 157.981 14.803 157.498 13.765 156.602 12.9866C 155.731 12.2081 154.671 11.8188 153.422 11.8188C 152.173 11.8188 151.125 12.2081 150.277 12.9866C 149.452 13.765 148.958 14.803 148.793 16.1005L 158.051 16.1005Z"/>
<path id="path8_fill" d="M 179.609 21.9391C 180.645 20.9012 181.164 19.4857 181.164 17.6928C 181.164 15.9 180.645 14.4963 179.609 13.482C 178.572 12.444 177.359 11.925 175.969 11.925C 174.579 11.925 173.366 12.4322 172.329 13.4466C 171.316 14.461 170.809 15.8646 170.809 17.6575C 170.809 19.4503 171.328 20.8658 172.364 21.9037C 173.401 22.9417 174.602 23.4607 175.969 23.4607C 177.359 23.4607 178.572 22.9535 179.609 21.9391ZM 168.371 24.9469C 166.628 23.0361 165.756 20.6063 165.756 17.6575C 165.756 14.7087 166.628 12.3024 168.371 10.4388C 170.114 8.55154 172.329 7.60793 175.015 7.60793C 177.7 7.60793 179.75 8.71668 181.164 10.9342L 181.164 1.30927L 186.111 1.30927L 186.111 27.4947L 181.164 27.4947L 181.164 24.2038C 179.679 26.5865 177.618 27.7778 174.979 27.7778C 172.341 27.7778 170.138 26.8342 168.371 24.9469Z"/>
<path id="path9_fill" d="M 50 25C 50 38.8071 38.8071 50 25 50C 11.1929 50 0 38.8071 0 25C 0 11.1929 11.1929 0 25 0C 38.8071 0 50 11.1929 50 25Z"/>
</defs>
</svg>
