<svg width="502" height="80" viewBox="0 0 502 80" version="1.1" xmlns="http://www.w3.org/2000/svg" xmlns:xlink="http://www.w3.org/1999/xlink">
<title>logo.svg</title>
<desc>Created using Figma</desc>
<g id="Canvas" transform="translate(-1642 -314)">
<g id="logo">
<g id="befocused">
<use xlink:href="#path0_fill" transform="translate(1845.9 331.778)" fill="#333333"/>
<use xlink:href="#path1_fill" transform="translate(1845.9 331.778)" fill="#333333"/>
<use xlink:href="#path2_fill" transform="translate(1845.9 331.778)" fill="#333333"/>
<use xlink:href="#path3_fill" transform="translate(1845.9 331.778)" fill="#333333"/>
<use xlink:href="#path4_fill" transform="translate(1845.9 331.778)" fill="#333333"/>
<use xlink:href="#path5_fill" transform="translate(1845.9 331.778)" fill="#333333"/>
<use xlink:href="#path6_fill" transform="translate(1845.9 331.778)" fill="#333333"/>
<use xlink:href="#path7_fill" transform="translate(1845.9 331.778)" fill="#333333"/>
<use xlink:href="#path8_fill" transform="translate(1845.9 331.778)" fill="#333333"/>
</g>
<g id="Ellipse">
<use xlink:href="#path9_fill" transform="translate(1642 314)" fill="#ABCFFF"/>
</g>
<g id="Ellipse">
<use xlink:href="#path9_fill" transform="translate(1681.98 314)" fill="#579FFF"/>
</g>
<g id="Ellipse">
<use xlink:href="#path9_fill" transform="translate(1721.96 314)" fill="#006DFF"/>
</g>
</g>
</g>
<defs>
<path id="path0_fill" d="M 21.9843 35.046C 23.6421 33.3852 24.471 31.1205 24.471 28.2519C 24.471 25.3833 23.6421 23.1375 21.9843 21.5145C 20.3642 19.8915 18.4427 19.08 16.2198 19.08C 13.9969 19.08 12.0565 19.9104 10.3988 21.5711C 8.77866 23.1941 7.96861 25.44 7.96861 28.3086C 7.96861 31.1772 8.77866 33.4418 10.3988 35.1026C 12.0565 36.7256 13.9969 37.5372 16.2198 37.5372C 18.4427 37.5372 20.3642 36.7068 21.9843 35.046ZM 7.96861 17.4947C 10.1915 13.9467 13.4506 12.1727 17.7457 12.1727C 22.0408 12.1727 25.5825 13.6825 28.3705 16.7021C 31.1586 19.6839 32.5526 23.5527 32.5526 28.3086C 32.5526 33.0267 31.1586 36.8955 28.3705 39.9151C 25.5825 42.9346 22.0597 44.4444 17.8022 44.4444C 13.5824 44.4444 10.3046 42.5383 7.96861 38.7261L 7.96861 43.9915L 0 43.9915L 0 2.09483L 7.96861 2.09483L 7.96861 17.4947Z"/>
<path id="path1_fill" d="M 52.0234 44.4444C 47.4645 44.4444 43.7533 42.9724 40.8899 40.0283C 38.0265 37.0465 36.5948 33.121 36.5948 28.2519C 36.5948 23.3829 38.0265 19.4952 40.8899 16.5888C 43.791 13.6447 47.521 12.1727 52.0799 12.1727C 56.6764 12.1727 60.4441 13.607 63.3829 16.4756C 66.3217 19.3064 67.7911 23.0998 67.7911 27.8556C 67.7911 28.9502 67.7157 29.9693 67.565 30.9129L 44.7329 30.9129C 44.9213 32.9512 45.6749 34.5931 46.9935 35.8386C 48.3122 37.0842 49.9888 37.707 52.0234 37.707C 54.7738 37.707 56.8083 36.5747 58.127 34.31L 66.7173 34.31C 65.813 37.2918 64.0611 39.7263 61.4614 41.6136C 58.8617 43.5008 55.7157 44.4444 52.0234 44.4444ZM 59.5399 25.7608C 59.4268 23.6848 58.6545 22.0241 57.2228 20.7785C 55.8287 19.5329 54.1333 18.9101 52.1364 18.9101C 50.1395 18.9101 48.4629 19.5329 47.1066 20.7785C 45.7879 22.0241 44.9967 23.6848 44.7329 25.7608L 59.5399 25.7608Z"/>
<path id="path2_fill" d="M 87.4596 12.6256L 87.4596 19.1366L 82.4863 19.1366L 82.4863 43.9915L 74.5742 43.9915L 74.5742 19.1366L 71.1833 19.1366L 71.1833 12.6256L 74.5742 12.6256L 74.5742 10.8705C 74.5742 7.09601 75.5726 4.34065 77.5695 2.60439C 79.5663 0.868129 82.7123 0 87.0075 0L 87.0075 6.68082C 85.3497 6.68082 84.1817 7.00165 83.5036 7.64331C 82.8254 8.28497 82.4863 9.3607 82.4863 10.8705L 82.4863 12.6256L 87.4596 12.6256Z"/>
<path id="path3_fill" d="M 106.843 37.707C 109.066 37.707 110.969 36.8955 112.551 35.2725C 114.171 33.6117 114.982 31.2904 114.982 28.3086C 114.982 25.289 114.19 22.9677 112.608 21.3447C 111.025 19.7216 109.104 18.9101 106.843 18.9101C 104.62 18.9101 102.737 19.7216 101.192 21.3447C 99.6471 22.9677 98.8747 25.289 98.8747 28.3086C 98.8747 31.3281 99.6471 33.6494 101.192 35.2725C 102.737 36.8955 104.62 37.707 106.843 37.707ZM 95.3708 39.9717C 92.319 36.9899 90.7931 33.0833 90.7931 28.2519C 90.7931 23.4206 92.3378 19.5329 95.4273 16.5888C 98.5168 13.6447 102.341 12.1727 106.9 12.1727C 111.496 12.1727 115.339 13.6447 118.429 16.5888C 121.518 19.5329 123.063 23.4206 123.063 28.2519C 123.063 33.0833 121.5 36.9899 118.372 39.9717C 115.283 42.9535 111.44 44.4444 106.843 44.4444C 102.247 44.4444 98.4226 42.9535 95.3708 39.9717Z"/>
<path id="path4_fill" d="M 131.457 40.0283C 128.594 37.0842 127.162 33.1776 127.162 28.3086C 127.162 23.4395 128.594 19.5329 131.457 16.5888C 134.321 13.6447 138.032 12.1727 142.591 12.1727C 146.396 12.1727 149.58 13.0974 152.142 14.9469C 154.704 16.7964 156.418 19.4197 157.285 22.8167L 148.694 22.8167C 147.677 20.2123 145.643 18.9101 142.591 18.9101C 140.293 18.9101 138.484 19.7594 137.165 21.4579C 135.884 23.1187 135.244 25.4022 135.244 28.3086C 135.244 31.2149 135.884 33.5173 137.165 35.2159C 138.484 36.8766 140.293 37.707 142.591 37.707C 145.605 37.707 147.64 36.3859 148.694 33.7438L 157.285 33.7438C 156.381 37.0276 154.629 39.632 152.029 41.557C 149.467 43.482 146.321 44.4444 142.591 44.4444C 138.032 44.4444 134.321 42.9724 131.457 40.0283Z"/>
<path id="path5_fill" d="M 184.842 12.6256L 192.811 12.6256L 192.811 43.9915L 184.842 43.9915L 184.842 39.2357C 182.845 42.6704 179.586 44.3878 175.065 44.3878C 171.523 44.3878 168.622 43.2177 166.362 40.8776C 164.101 38.4996 162.971 35.2158 162.971 31.0262L 162.971 12.6256L 170.883 12.6256L 170.883 29.8938C 170.883 32.3472 171.504 34.2345 172.748 35.5556C 173.991 36.8766 175.687 37.5372 177.834 37.5372C 179.982 37.5372 181.677 36.8766 182.92 35.5556C 184.201 34.2345 184.842 32.3472 184.842 29.8938L 184.842 12.6256Z"/>
<path id="path6_fill" d="M 199.528 21.7976C 199.528 19.08 200.677 16.7964 202.975 14.9469C 205.273 13.0974 208.325 12.1727 212.13 12.1727C 215.936 12.1727 218.987 13.0974 221.286 14.9469C 223.584 16.7587 224.809 19.231 224.959 22.3638L 216.821 22.3638C 216.595 19.7216 214.975 18.4006 211.961 18.4006C 210.454 18.4006 209.286 18.7025 208.457 19.3064C 207.628 19.9104 207.214 20.7407 207.214 21.7976C 207.214 22.8544 207.835 23.6848 209.079 24.2887C 210.322 24.8927 211.829 25.3645 213.6 25.7042C 215.371 26.0439 217.123 26.4779 218.856 27.0064C 220.626 27.497 222.133 28.4029 223.377 29.724C 224.62 31.0073 225.242 32.7247 225.242 34.8761C 225.242 37.707 224.036 40.0094 221.625 41.7834C 219.251 43.5574 216.199 44.4444 212.469 44.4444C 208.777 44.4444 205.744 43.5763 203.371 41.8401C 200.997 40.0661 199.697 37.5372 199.471 34.2534L 207.609 34.2534C 207.911 36.8955 209.587 38.2166 212.639 38.2166C 214.108 38.2166 215.295 37.8957 216.199 37.2541C 217.104 36.5747 217.556 35.7065 217.556 34.6497C 217.556 33.5551 216.934 32.7058 215.691 32.1019C 214.447 31.4602 212.94 30.9696 211.17 30.6299C 209.399 30.2902 207.628 29.875 205.857 29.3843C 204.124 28.8936 202.636 28.0255 201.392 26.7799C 200.149 25.4966 199.528 23.8358 199.528 21.7976Z"/>
<path id="path7_fill" d="M 245.245 44.4444C 240.686 44.4444 236.975 42.9724 234.112 40.0283C 231.248 37.0465 229.816 33.121 229.816 28.2519C 229.816 23.3829 231.248 19.4952 234.112 16.5888C 237.013 13.6447 240.743 12.1727 245.302 12.1727C 249.898 12.1727 253.666 13.607 256.605 16.4756C 259.543 19.3064 261.013 23.0998 261.013 27.8556C 261.013 28.9502 260.937 29.9693 260.787 30.9129L 237.955 30.9129C 238.143 32.9512 238.897 34.5931 240.215 35.8386C 241.534 37.0842 243.211 37.707 245.245 37.707C 247.995 37.707 250.03 36.5747 251.349 34.31L 259.939 34.31C 259.035 37.2918 257.283 39.7263 254.683 41.6136C 252.083 43.5008 248.937 44.4444 245.245 44.4444ZM 252.762 25.7608C 252.649 23.6848 251.876 22.0241 250.444 20.7785C 249.05 19.5329 247.355 18.9101 245.358 18.9101C 243.361 18.9101 241.685 19.5329 240.328 20.7785C 239.01 22.0241 238.218 23.6848 237.955 25.7608L 252.762 25.7608Z"/>
<path id="path8_fill" d="M 287.237 35.1026C 288.895 33.4418 289.724 31.1772 289.724 28.3086C 289.724 25.44 288.895 23.1941 287.237 21.5711C 285.579 19.9104 283.639 19.08 281.416 19.08C 279.193 19.08 277.253 19.8915 275.595 21.5145C 273.975 23.1375 273.165 25.3833 273.165 28.2519C 273.165 31.1205 273.994 33.3852 275.651 35.046C 277.309 36.7068 279.231 37.5372 281.416 37.5372C 283.639 37.5372 285.579 36.7256 287.237 35.1026ZM 269.265 39.9151C 266.477 36.8577 265.083 32.97 265.083 28.2519C 265.083 23.5338 266.477 19.6839 269.265 16.7021C 272.053 13.6825 275.595 12.1727 279.89 12.1727C 284.185 12.1727 287.463 13.9467 289.724 17.4947L 289.724 2.09483L 297.636 2.09483L 297.636 43.9915L 289.724 43.9915L 289.724 38.7261C 287.35 42.5383 284.053 44.4444 279.834 44.4444C 275.614 44.4444 272.091 42.9346 269.265 39.9151Z"/>
<path id="path9_fill" d="M 79.9618 40C 79.9618 62.0914 62.0618 80 39.9809 80C 17.9001 80 0 62.0914 0 40C 0 17.9086 17.9001 0 39.9809 0C 62.0618 0 79.9618 17.9086 79.9618 40Z"/>
</defs>
</svg>
