<svg width="323" height="46" viewBox="0 0 323 46" version="1.1" xmlns="http://www.w3.org/2000/svg" xmlns:xlink="http://www.w3.org/1999/xlink">
<title>logo</title>
<desc>Created using Figma</desc>
<g id="Canvas" transform="translate(-42 -62)">
<g id="logo">
<g id="BeFocused">
<use xlink:href="#path0_fill" transform="translate(118.726 62.4127)" fill="#333333"/>
<use xlink:href="#path1_fill" transform="translate(118.726 62.4127)" fill="#333333"/>
<use xlink:href="#path2_fill" transform="translate(118.726 62.4127)" fill="#333333"/>
<use xlink:href="#path3_fill" transform="translate(118.726 62.4127)" fill="#333333"/>
<use xlink:href="#path4_fill" transform="translate(118.726 62.4127)" fill="#333333"/>
<use xlink:href="#path5_fill" transform="translate(118.726 62.4127)" fill="#333333"/>
</g>
<g id="BeFocused">
<use xlink:href="#path6_fill" transform="translate(42.8241 65.1516)" fill="#333333"/>
<use xlink:href="#path7_fill" transform="translate(42.8241 65.1516)" fill="#333333"/>
</g>
<g id="Ellipse">
<use xlink:href="#path8_fill" transform="translate(144 74)" fill="#333333"/>
</g>
</g>
</g>
<defs>
<path id="path0_fill" d="M 0 45.0396L 0 2.73889L 24.8935 2.73889L 24.8935 8.15581L 6.93852 8.15581L 6.93852 20.9982L 20.9373 20.9982L 20.9373 26.3542L 6.93852 26.3542L 6.93852 45.0396L 0 45.0396Z"/>
<path id="path1_fill" d="M 81.2571 45.5873C 76.3879 45.5873 72.4317 44.0049 69.3885 40.8399C 66.3453 37.675 64.8237 33.4956 64.8237 28.3019C 64.8237 23.0676 66.3453 18.8679 69.3885 15.703C 72.4723 12.538 76.4285 10.9556 81.2571 10.9556C 85.3147 10.9556 88.6622 11.9294 91.2997 13.8771C 93.9777 15.7841 95.7834 18.523 96.7166 22.0937L 89.2303 22.0937C 87.9724 18.5636 85.3147 16.7985 81.2571 16.7985C 78.4167 16.7985 76.1445 17.8129 74.4403 19.8418C 72.7767 21.83 71.9448 24.6297 71.9448 28.241C 71.9448 31.8523 72.7767 34.6724 74.4403 36.7012C 76.1445 38.73 78.4167 39.7444 81.2571 39.7444C 85.2741 39.7444 87.9319 37.9793 89.2303 34.4492L 96.7166 34.4492C 95.7428 37.8576 93.9168 40.5762 91.2388 42.605C 88.5608 44.5932 85.2335 45.5873 81.2571 45.5873Z"/>
<path id="path2_fill" d="M 127.064 11.5033L 134.003 11.5033L 134.003 45.0396L 127.064 45.0396L 127.064 39.7444C 124.873 43.5991 121.302 45.5265 116.352 45.5265C 112.578 45.5265 109.454 44.2889 106.979 41.8138C 104.544 39.298 103.327 35.7882 103.327 31.2842L 103.327 11.5033L 110.205 11.5033L 110.205 30.2495C 110.205 33.2522 110.955 35.565 112.457 37.1881C 113.958 38.7705 116.007 39.5618 118.604 39.5618C 121.201 39.5618 123.25 38.7705 124.751 37.1881C 126.293 35.565 127.064 33.2522 127.064 30.2495L 127.064 11.5033Z"/>
<path id="path3_fill" d="M 141.636 21.1199C 141.636 18.2796 142.833 15.8856 145.227 13.9379C 147.621 11.9497 150.765 10.9556 154.661 10.9556C 158.556 10.9556 161.64 11.9294 163.912 13.8771C 166.225 15.7841 167.463 18.4013 167.625 21.7285L 160.504 21.7285C 160.382 20.0649 159.794 18.7665 158.739 17.8332C 157.724 16.9 156.284 16.4334 154.417 16.4334C 152.551 16.4334 151.09 16.8594 150.035 17.7115C 148.98 18.523 148.453 19.6186 148.453 20.9982C 148.453 22.3372 149.122 23.3922 150.461 24.1631C 151.8 24.9341 153.423 25.5021 155.33 25.8673C 157.278 26.2325 159.205 26.6788 161.112 27.2063C 163.06 27.7338 164.703 28.7077 166.042 30.1278C 167.381 31.5074 168.051 33.3739 168.051 35.7273C 168.051 38.6488 166.813 41.0225 164.338 42.8484C 161.904 44.6744 158.759 45.5873 154.904 45.5873C 151.05 45.5873 147.925 44.6541 145.531 42.7876C 143.137 40.9211 141.818 38.2633 141.575 34.8144L 148.757 34.8144C 148.879 36.478 149.487 37.7764 150.583 38.7097C 151.678 39.6429 153.159 40.1096 155.026 40.1096C 156.933 40.1096 158.434 39.7038 159.53 38.8923C 160.666 38.0402 161.234 36.9243 161.234 35.5447C 161.234 34.1651 160.565 33.0899 159.226 32.3189C 157.887 31.548 156.243 30.9799 154.296 30.6147C 152.389 30.209 150.461 29.7626 148.514 29.2757C 146.606 28.7482 144.983 27.815 143.644 26.476C 142.305 25.1369 141.636 23.3516 141.636 21.1199Z"/>
<path id="path4_fill" d="M 189.79 45.5873C 184.921 45.5873 180.965 44.0049 177.922 40.8399C 174.879 37.675 173.357 33.4754 173.357 28.241C 173.357 23.0067 174.899 18.8274 177.983 15.703C 181.067 12.538 185.043 10.9556 189.912 10.9556C 194.822 10.9556 198.798 12.4772 201.842 15.5204C 204.885 18.523 206.406 22.4589 206.406 27.3281C 206.406 28.5048 206.325 29.6003 206.163 30.6147L 180.478 30.6147C 180.641 33.4145 181.574 35.6462 183.278 37.3098C 185.023 38.9329 187.194 39.7444 189.79 39.7444C 193.564 39.7444 196.222 38.1822 197.764 35.0578L 205.25 35.0578C 204.236 38.1416 202.389 40.6776 199.711 42.6659C 197.033 44.6135 193.726 45.5873 189.79 45.5873ZM 199.164 25.8673C 199.123 23.1081 198.21 20.917 196.425 19.294C 194.639 17.6304 192.469 16.7985 189.912 16.7985C 187.356 16.7985 185.205 17.6304 183.461 19.294C 181.756 20.917 180.783 23.1081 180.539 25.8673L 199.164 25.8673Z"/>
<path id="path5_fill" d="M 235.328 36.5186C 237.357 34.4492 238.372 31.69 238.372 28.241C 238.372 24.792 237.357 22.0532 235.328 20.0243C 233.34 17.9955 230.966 16.9811 228.207 16.9811C 225.448 16.9811 223.054 17.9753 221.025 19.9635C 219.037 21.9517 218.043 24.6703 218.043 28.1193C 218.043 31.5683 219.037 34.3477 221.025 36.4577C 223.054 38.5271 225.448 39.5618 228.207 39.5618C 230.966 39.5618 233.34 38.5474 235.328 36.5186ZM 226.746 45.5873C 222.283 45.5873 218.53 43.9643 215.487 40.7182C 212.443 37.4315 210.922 33.2522 210.922 28.1802C 210.922 23.0676 212.423 18.9288 215.426 15.7638C 218.469 12.5583 222.243 10.9556 226.746 10.9556C 229.384 10.9556 231.697 11.5642 233.685 12.7815C 235.714 13.9582 237.276 15.5204 238.372 17.468L 238.372 0L 245.371 0L 245.371 45.0396L 238.372 45.0396L 238.372 38.7705C 237.235 40.8399 235.673 42.5036 233.685 43.7614C 231.697 44.9787 229.384 45.5873 226.746 45.5873Z"/>
<path id="path6_fill" d="M 0 0L 16.129 0C 20.4707 0 23.8385 1.05498 26.2325 3.16494C 28.6265 5.2749 29.8235 7.95293 29.8235 11.199C 29.8235 15.9464 27.0846 19.0708 21.6068 20.5721C 24.366 21.0185 26.5774 22.256 28.241 24.2848C 29.9452 26.2731 30.7973 28.5656 30.7973 31.1625C 30.7973 34.4086 29.5395 37.0866 27.0237 39.1966C 24.508 41.266 21.1402 42.3007 16.9203 42.3007L 0 42.3007L 0 0ZM 6.93853 5.41692L 6.93853 17.955L 15.5204 17.955C 17.7927 17.955 19.5577 17.4072 20.8156 16.3116C 22.114 15.2161 22.7632 13.6945 22.7632 11.7468C 22.7632 9.75857 22.114 8.21668 20.8156 7.12112C 19.5577 5.98499 17.7927 5.41692 15.5204 5.41692L 6.93853 5.41692ZM 6.93853 36.8838L 16.3116 36.8838C 18.665 36.8838 20.5113 36.2954 21.8503 35.1187C 23.1893 33.942 23.8588 32.3189 23.8588 30.2495C 23.8588 28.1396 23.1487 26.476 21.7285 25.2587C 20.3084 24.0008 18.4216 23.3719 16.0682 23.3719L 6.93853 23.3719L 6.93853 36.8838Z"/>
<path id="path7_fill" d="M 52.4579 42.8484C 47.5887 42.8484 43.6326 41.266 40.5893 38.101C 37.5461 34.9361 36.0245 30.7365 36.0245 25.5021C 36.0245 20.2678 37.5664 16.0885 40.6502 12.9641C 43.734 9.79915 47.7105 8.21668 52.5796 8.21668C 57.4893 8.21668 61.4658 9.73828 64.509 12.7815C 67.5522 15.7841 69.0738 19.72 69.0738 24.5892C 69.0738 25.7659 68.9927 26.8614 68.8304 27.8758L 43.1456 27.8758C 43.3079 30.6756 44.2412 32.9073 45.9454 34.5709C 47.6902 36.194 49.861 37.0055 52.4579 37.0055C 56.2315 37.0055 58.8892 35.4433 60.4311 32.3189L 67.9174 32.3189C 66.903 35.4027 65.0568 37.9387 62.3788 39.927C 59.7007 41.8746 56.3938 42.8484 52.4579 42.8484ZM 61.831 23.1284C 61.7904 20.3692 60.8774 18.1781 59.0921 16.5551C 57.3067 14.8915 55.1359 14.0596 52.5796 14.0596C 50.0233 14.0596 47.8728 14.8915 46.128 16.5551C 44.4238 18.1781 43.45 20.3692 43.2065 23.1284L 61.831 23.1284Z"/>
<path id="path8_fill" d="M 34 17C 34 26.3888 26.3888 34 17 34C 7.61116 34 0 26.3888 0 17C 0 7.61116 7.61116 0 17 0C 26.3888 0 34 7.61116 34 17Z"/>
</defs>
</svg>
