<svg width="226" height="36" viewBox="0 0 226 36" version="1.1" xmlns="http://www.w3.org/2000/svg" xmlns:xlink="http://www.w3.org/1999/xlink">
<title>logo.svg</title>
<desc>Created using Figma</desc>
<g id="Canvas" transform="translate(-2015 -850)">
<g id="logo">
<g id="befocused">
<use xlink:href="#path0_fill" transform="translate(2106.8 858)" fill="#333333"/>
<use xlink:href="#path1_fill" transform="translate(2106.8 858)" fill="#333333"/>
<use xlink:href="#path2_fill" transform="translate(2106.8 858)" fill="#333333"/>
<use xlink:href="#path3_fill" transform="translate(2106.8 858)" fill="#333333"/>
<use xlink:href="#path4_fill" transform="translate(2106.8 858)" fill="#333333"/>
<use xlink:href="#path5_fill" transform="translate(2106.8 858)" fill="#333333"/>
<use xlink:href="#path6_fill" transform="translate(2106.8 858)" fill="#333333"/>
<use xlink:href="#path7_fill" transform="translate(2106.8 858)" fill="#333333"/>
<use xlink:href="#path8_fill" transform="translate(2106.8 858)" fill="#333333"/>
</g>
<g id="Ellipse">
<use xlink:href="#path9_fill" transform="translate(2015 850)" fill="#ABCFFF"/>
</g>
<g id="Ellipse">
<use xlink:href="#path9_fill" transform="translate(2033 850)" fill="#579FFF"/>
</g>
<g id="Ellipse">
<use xlink:href="#path9_fill" transform="translate(2051 850)" fill="#006DFF"/>
</g>
</g>
</g>
<defs>
<path id="path0_fill" d="M 9.89767 15.7707C 10.644 15.0234 11.0172 14.0042 11.0172 12.7134C 11.0172 11.4225 10.644 10.4119 9.89767 9.68153C 9.16828 8.95117 8.30319 8.58599 7.30239 8.58599C 6.3016 8.58599 5.42803 8.95966 4.68167 9.70701C 3.95228 10.4374 3.58759 11.448 3.58759 12.7389C 3.58759 14.0297 3.95228 15.0488 4.68167 15.7962C 5.42803 16.5265 6.3016 16.8917 7.30239 16.8917C 8.30319 16.8917 9.16828 16.518 9.89767 15.7707ZM 3.58759 7.87261C 4.58838 6.27601 6.05564 5.47771 7.98938 5.47771C 9.92311 5.47771 11.5176 6.15711 12.7728 7.51592C 14.0281 8.85775 14.6557 10.5987 14.6557 12.7389C 14.6557 14.862 14.0281 16.603 12.7728 17.9618C 11.5176 19.3206 9.93159 20 8.01482 20C 6.11501 20 4.63927 19.1423 3.58759 17.4268L 3.58759 19.7962L 0 19.7962L 0 0.942675L 3.58759 0.942675L 3.58759 7.87261Z"/>
<path id="path1_fill" d="M 23.4217 20C 21.3692 20 19.6984 19.3376 18.4092 18.0127C 17.1201 16.6709 16.4755 14.9045 16.4755 12.7134C 16.4755 10.5223 17.1201 8.77282 18.4092 7.46497C 19.7154 6.14013 21.3947 5.47771 23.4471 5.47771C 25.5166 5.47771 27.2128 6.12314 28.5359 7.41401C 29.859 8.6879 30.5205 10.3949 30.5205 12.535C 30.5205 13.0276 30.4866 13.4862 30.4188 13.9108L 20.1394 13.9108C 20.2242 14.828 20.5635 15.5669 21.1572 16.1274C 21.7509 16.6879 22.5057 16.9682 23.4217 16.9682C 24.66 16.9682 25.5759 16.4586 26.1696 15.4395L 30.0371 15.4395C 29.63 16.7813 28.8412 17.8769 27.6708 18.7261C 26.5004 19.5754 25.084 20 23.4217 20ZM 26.8057 11.5924C 26.7548 10.6582 26.4071 9.91083 25.7625 9.35032C 25.1349 8.78981 24.3716 8.50955 23.4726 8.50955C 22.5736 8.50955 21.8187 8.78981 21.2081 9.35032C 20.6144 9.91083 20.2582 10.6582 20.1394 11.5924L 26.8057 11.5924Z"/>
<path id="path2_fill" d="M 39.3756 5.68153L 39.3756 8.61147L 37.1365 8.61147L 37.1365 19.7962L 33.5744 19.7962L 33.5744 8.61147L 32.0478 8.61147L 32.0478 5.68153L 33.5744 5.68153L 33.5744 4.89172C 33.5744 3.19321 34.0239 1.95329 34.9229 1.17197C 35.8219 0.390658 37.2383 0 39.172 0L 39.172 3.00637C 38.4257 3.00637 37.8999 3.15074 37.5945 3.43949C 37.2892 3.72824 37.1365 4.21231 37.1365 4.89172L 37.1365 5.68153L 39.3756 5.68153Z"/>
<path id="path3_fill" d="M 48.1025 16.9682C 49.1032 16.9682 49.9599 16.603 50.6723 15.8726C 51.4017 15.1253 51.7664 14.0807 51.7664 12.7389C 51.7664 11.38 51.4102 10.3355 50.6977 9.60509C 49.9853 8.87473 49.1202 8.50955 48.1025 8.50955C 47.1017 8.50955 46.2535 8.87473 45.5581 9.60509C 44.8626 10.3355 44.5149 11.38 44.5149 12.7389C 44.5149 14.0977 44.8626 15.1423 45.5581 15.8726C 46.2535 16.603 47.1017 16.9682 48.1025 16.9682ZM 42.9373 17.9873C 41.5634 16.6454 40.8764 14.8875 40.8764 12.7134C 40.8764 10.5393 41.5719 8.78981 42.9628 7.46497C 44.3537 6.14013 46.0754 5.47771 48.1279 5.47771C 50.1973 5.47771 51.9275 6.14013 53.3184 7.46497C 54.7094 8.78981 55.4048 10.5393 55.4048 12.7134C 55.4048 14.8875 54.7009 16.6454 53.293 17.9873C 51.9021 19.3291 50.1719 20 48.1025 20C 46.033 20 44.3113 19.3291 42.9373 17.9873Z"/>
<path id="path4_fill" d="M 59.1841 18.0127C 57.8949 16.6879 57.2503 14.9299 57.2503 12.7389C 57.2503 10.5478 57.8949 8.78981 59.1841 7.46497C 60.4732 6.14013 62.144 5.47771 64.1965 5.47771C 65.9097 5.47771 67.3431 5.89384 68.4965 6.72611C 69.65 7.55839 70.4218 8.73885 70.8119 10.2675L 66.9444 10.2675C 66.4865 9.09554 65.5705 8.50955 64.1965 8.50955C 63.1618 8.50955 62.3476 8.89172 61.7539 9.65605C 61.1772 10.4034 60.8888 11.431 60.8888 12.7389C 60.8888 14.0467 61.1772 15.0828 61.7539 15.8471C 62.3476 16.5945 63.1618 16.9682 64.1965 16.9682C 65.5535 16.9682 66.4695 16.3737 66.9444 15.1847L 70.8119 15.1847C 70.4048 16.6624 69.616 17.8344 68.4456 18.7006C 67.2922 19.5669 65.8758 20 64.1965 20C 62.144 20 60.4732 19.3376 59.1841 18.0127Z"/>
<path id="path5_fill" d="M 83.2186 5.68153L 86.8062 5.68153L 86.8062 19.7962L 83.2186 19.7962L 83.2186 17.6561C 82.3196 19.2017 80.8523 19.9745 78.8168 19.9745C 77.2223 19.9745 75.9162 19.448 74.8984 18.3949C 73.8807 17.3248 73.3718 15.8471 73.3718 13.9618L 73.3718 5.68153L 76.9339 5.68153L 76.9339 13.4522C 76.9339 14.5563 77.2138 15.4055 77.7736 16C 78.3334 16.5945 79.0967 16.8917 80.0635 16.8917C 81.0304 16.8917 81.7937 16.5945 82.3535 16C 82.9302 15.4055 83.2186 14.5563 83.2186 13.4522L 83.2186 5.68153Z"/>
<path id="path6_fill" d="M 89.8302 9.80892C 89.8302 8.58599 90.3476 7.55839 91.3823 6.72611C 92.417 5.89384 93.791 5.47771 95.5042 5.47771C 97.2174 5.47771 98.5914 5.89384 99.6261 6.72611C 100.661 7.5414 101.212 8.65393 101.28 10.0637L 97.616 10.0637C 97.5143 8.87474 96.7849 8.28025 95.4279 8.28025C 94.7494 8.28025 94.2235 8.41613 93.8503 8.6879C 93.4772 8.95966 93.2906 9.33333 93.2906 9.80892C 93.2906 10.2845 93.5705 10.6582 94.1302 10.9299C 94.69 11.2017 95.3685 11.414 96.1657 11.5669C 96.963 11.7197 97.7517 11.9151 98.532 12.1529C 99.3293 12.3737 100.008 12.7813 100.568 13.3758C 101.127 13.9533 101.407 14.7261 101.407 15.6943C 101.407 16.9682 100.864 18.0042 99.7788 18.8025C 98.7101 19.6008 97.3362 20 95.6569 20C 93.9945 20 92.629 19.6093 91.5604 18.828C 90.4918 18.0297 89.9065 16.8917 89.8048 15.414L 93.4687 15.414C 93.6044 16.603 94.3592 17.1975 95.7332 17.1975C 96.3947 17.1975 96.9291 17.0531 97.3362 16.7643C 97.7433 16.4586 97.9468 16.0679 97.9468 15.5924C 97.9468 15.0998 97.6669 14.7176 97.1072 14.4459C 96.5474 14.1571 95.8689 13.9363 95.0717 13.7834C 94.2744 13.6306 93.4772 13.4437 92.6799 13.2229C 91.8997 13.0021 91.2296 12.6115 90.6699 12.051C 90.1101 11.4735 89.8302 10.7261 89.8302 9.80892Z"/>
<path id="path7_fill" d="M 110.413 20C 108.36 20 106.69 19.3376 105.4 18.0127C 104.111 16.6709 103.467 14.9045 103.467 12.7134C 103.467 10.5223 104.111 8.77282 105.4 7.46497C 106.707 6.14013 108.386 5.47771 110.438 5.47771C 112.508 5.47771 114.204 6.12314 115.527 7.41401C 116.85 8.6879 117.512 10.3949 117.512 12.535C 117.512 13.0276 117.478 13.4862 117.41 13.9108L 107.131 13.9108C 107.215 14.828 107.555 15.5669 108.148 16.1274C 108.742 16.6879 109.497 16.9682 110.413 16.9682C 111.651 16.9682 112.567 16.4586 113.161 15.4395L 117.028 15.4395C 116.621 16.7813 115.832 17.8769 114.662 18.7261C 113.492 19.5754 112.075 20 110.413 20ZM 113.797 11.5924C 113.746 10.6582 113.398 9.91083 112.754 9.35032C 112.126 8.78981 111.363 8.50955 110.464 8.50955C 109.565 8.50955 108.81 8.78981 108.199 9.35032C 107.606 9.91083 107.249 10.6582 107.131 11.5924L 113.797 11.5924Z"/>
<path id="path8_fill" d="M 129.318 15.7962C 130.065 15.0488 130.438 14.0297 130.438 12.7389C 130.438 11.448 130.065 10.4374 129.318 9.70701C 128.572 8.95966 127.698 8.58599 126.698 8.58599C 125.697 8.58599 124.823 8.95117 124.077 9.68153C 123.347 10.4119 122.983 11.4225 122.983 12.7134C 122.983 14.0042 123.356 15.0234 124.102 15.7707C 124.849 16.518 125.714 16.8917 126.698 16.8917C 127.698 16.8917 128.572 16.5265 129.318 15.7962ZM 121.227 17.9618C 119.972 16.586 119.344 14.8365 119.344 12.7134C 119.344 10.5902 119.972 8.85775 121.227 7.51592C 122.482 6.15711 124.077 5.47771 126.011 5.47771C 127.944 5.47771 129.42 6.27601 130.438 7.87261L 130.438 0.942675L 134 0.942675L 134 19.7962L 130.438 19.7962L 130.438 17.4268C 129.369 19.1423 127.885 20 125.985 20C 124.085 20 122.499 19.3206 121.227 17.9618Z"/>
<path id="path9_fill" d="M 36 18C 36 27.9411 27.9411 36 18 36C 8.05887 36 0 27.9411 0 18C 0 8.05887 8.05887 0 18 0C 27.9411 0 36 8.05887 36 18Z"/>
</defs>
</svg>
